<svg xmlns="http://www.w3.org/2000/svg" version="1.1" xmlns:xlink="http://www.w3.org/1999/xlink" xmlns:svgjs="http://svgjs.dev/svgjs" width="1500" height="397" viewBox="0 0 1500 397"><g transform="matrix(1,0,0,1,-0.9090909090908781,-0.002822194462680727)"><svg viewBox="0 0 396 105" data-background-color="#573b2a" preserveAspectRatio="xMidYMid meet" height="397" width="1500" xmlns="http://www.w3.org/2000/svg" xmlns:xlink="http://www.w3.org/1999/xlink"><g id="tight-bounds" transform="matrix(1,0,0,1,0.2400000000000091,0.0007464242281685074)"><svg viewBox="0 0 395.52 104.99850715154369" height="104.99850715154369" width="395.52"><g><svg viewBox="0 0 579.9362034544482 153.95538937563455" height="104.99850715154369" width="395.52"><g transform="matrix(1,0,0,1,184.41620345444827,44.720271147502174)"><svg viewBox="0 0 395.52 64.5148470806302" height="64.5148470806302" width="395.52"><g id="textblocktransform"><svg viewBox="0 0 395.52 64.5148470806302" height="64.5148470806302" width="395.52" id="textblock"><g><svg viewBox="0 0 395.52 64.5148470806302" height="64.5148470806302" width="395.52"><g transform="matrix(1,0,0,1,0,0)"><svg width="395.52" viewBox="0.85 -34.55 215.78 35.199999999999996" height="64.5148470806302" data-palette-color="#f9f6ed"><path d="M11.55 0L11.55-30.2 0.85-30.2 0.85-34.1 26.45-34.1 26.45-30.2 15.75-30.2 15.75 0 11.55 0ZM25.85 0L37.55-34.1 42.75-34.1 54.45 0 50.1 0 47.1-9.1 33.25-9.1 30.2 0 25.85 0ZM34.55-13.1L45.75-13.1 40.25-30.1 40.1-30.1 34.55-13.1ZM77.94-33.45L77.25-29.4Q76.05-29.7 74.75-29.95L74.75-29.95Q73.59-30.2 72.12-30.38 70.64-30.55 69.05-30.55L69.05-30.55Q65.34-30.55 63.74-29.43 62.14-28.3 62.14-25.95L62.14-25.95Q62.19-24.1 63.49-22.83 64.8-21.55 66.75-20.48 68.69-19.4 71.02-18.38 73.34-17.35 75.3-16.03 77.25-14.7 78.57-12.93 79.89-11.15 79.89-8.6L79.89-8.6Q79.89-5.65 78.62-3.85 77.34-2.05 75.39-1.05 73.44-0.05 71.12 0.3 68.8 0.65 66.69 0.65L66.69 0.65Q64.69 0.65 63.04 0.4 61.39 0.15 60.19-0.15L60.19-0.15Q58.79-0.5 57.64-0.95L57.64-0.95 58.64-5Q59.79-4.5 61.09-4.15L61.09-4.15Q62.24-3.85 63.67-3.6 65.09-3.35 66.69-3.35L66.69-3.35Q68.64-3.35 70.27-3.6 71.89-3.85 73.09-4.4 74.3-4.95 74.97-5.85 75.64-6.75 75.64-8.05L75.64-8.05Q75.59-10 74.37-11.23 73.14-12.45 71.12-13.58 69.09-14.7 66.77-15.75 64.44-16.8 62.49-18.15 60.54-19.5 59.22-21.35 57.89-23.2 57.89-25.95L57.89-25.95Q57.89-27.55 58.44-29.1 58.99-30.65 60.32-31.85 61.64-33.05 63.77-33.8 65.89-34.55 69.05-34.55L69.05-34.55Q70.84-34.55 72.47-34.38 74.09-34.2 75.3-34L75.3-34Q76.69-33.75 77.94-33.45L77.94-33.45ZM84.24-17.05L84.24-17.05Q84.24-21.9 85.77-25.25 87.29-28.6 89.67-30.65 92.04-32.7 94.97-33.63 97.89-34.55 100.69-34.55L100.69-34.55Q103.49-34.55 106.42-33.77 109.34-33 111.72-31.03 114.09-29.05 115.62-25.65 117.14-22.25 117.14-17L117.14-17Q117.14-12.1 115.62-8.75 114.09-5.4 111.72-3.3 109.34-1.2 106.42-0.28 103.49 0.65 100.69 0.65L100.69 0.65Q97.89 0.65 94.97-0.25 92.04-1.15 89.67-3.2 87.29-5.25 85.77-8.65 84.24-12.05 84.24-17.05ZM112.39-16.8L112.39-16.8Q112.39-23.55 109.27-27.05 106.14-30.55 100.89-30.55L100.89-30.55Q98.24-30.55 96.07-29.73 93.89-28.9 92.32-27.25 90.74-25.6 89.87-23.13 88.99-20.65 88.99-17.3L88.99-17.3Q88.99-10.55 92.12-6.95 95.24-3.35 100.49-3.35L100.49-3.35Q103.09-3.35 105.29-4.17 107.49-5 109.07-6.7 110.64-8.4 111.52-10.9 112.39-13.4 112.39-16.8ZM120.19 0L131.89-34.1 137.09-34.1 148.79 0 144.44 0 141.44-9.1 127.59-9.1 124.54 0 120.19 0ZM128.89-13.1L140.09-13.1 134.59-30.1 134.44-30.1 128.89-13.1ZM160.54 0L149.19-34.1 153.44-34.1 163.24-4 163.29-4 172.94-34.1 177.19-34.1 165.84 0 160.54 0ZM206.19-33L205.29-29.3Q204.04-29.7 202.64-30.03 201.24-30.35 199.56-30.58 197.89-30.8 196.04-30.8L196.04-30.8Q193.04-30.8 190.94-29.5 188.84-28.2 187.51-26.18 186.19-24.15 185.59-21.65 184.99-19.15 184.99-16.7L184.99-16.7Q184.99-13.6 185.86-11.08 186.74-8.55 188.26-6.78 189.79-5 191.81-4.05 193.84-3.1 196.09-3.1L196.09-3.1Q198.19-3.1 199.94-3.33 201.69-3.55 202.94-3.8L202.94-3.8Q204.39-4.1 205.54-4.5L205.54-4.5 206.39-0.95Q205.04-0.5 203.39-0.15L203.39-0.15Q201.99 0.15 200.14 0.4 198.29 0.65 196.09 0.65L196.09 0.65Q192.14 0.65 189.16-0.65 186.19-1.95 184.21-4.28 182.24-6.6 181.24-9.78 180.24-12.95 180.24-16.75L180.24-16.75Q180.24-21.1 181.44-24.43 182.64-27.75 184.74-30 186.84-32.25 189.74-33.4 192.64-34.55 196.09-34.55L196.09-34.55Q198.19-34.55 200.01-34.33 201.84-34.1 203.36-33.75 204.89-33.4 206.19-33L206.19-33ZM212.43 0L212.43-34.1 216.63-34.1 216.63 0 212.43 0Z" opacity="1" transform="matrix(1,0,0,1,0,0)" fill="#f9f6ed" class="wordmark-text-0" data-fill-palette-color="primary" id="text-0"></path></svg></g></svg></g></svg></g></svg></g><g><svg viewBox="0 0 153.95538937563455 153.95538937563455" height="153.95538937563455" width="153.95538937563455"><g><svg></svg></g><g id="icon-0"><svg viewBox="0 0 153.95538937563455 153.95538937563455" height="153.95538937563455" width="153.95538937563455"><g><path d="M0 76.978c0-42.514 34.464-76.978 76.978-76.978 42.514 0 76.978 34.464 76.977 76.978 0 42.514-34.464 76.978-76.977 76.977-42.514 0-76.978-34.464-76.978-76.977zM76.978 148.137c39.3 0 71.16-31.859 71.159-71.159 0-39.3-31.859-71.16-71.159-71.16-39.3 0-71.16 31.859-71.16 71.16 0 39.3 31.859 71.16 71.16 71.159z" data-fill-palette-color="accent" fill="#c5d0d2" stroke="transparent"></path></g><g transform="matrix(1,0,0,1,40.88476934596877,35.30215658884456)"><svg viewBox="0 0 72.18585068369701 83.35107619794543" height="83.35107619794543" width="72.18585068369701"><g><svg xmlns="http://www.w3.org/2000/svg" xmlns:xlink="http://www.w3.org/1999/xlink" version="1.1" x="0" y="0" viewBox="9.547 3.29 80.906 93.41999999999999" enable-background="new 0 0 100 100" xml:space="preserve" height="83.35107619794543" width="72.18585068369701" class="icon-cg-0" data-fill-palette-color="accent" id="cg-0"><g fill="#c5d0d2" data-fill-palette-color="accent"><path d="M31.112 39.094v21.812L49.999 71.81l18.89-10.903V39.094l-18.89-10.905L31.112 39.094zM60.925 56.308l-10.926 6.307-10.924-6.307V43.692l10.924-6.308 10.926 6.308V56.308z" fill="#c5d0d2" data-fill-palette-color="accent"></path><path d="M49.999 3.29L9.547 26.646v46.709L49.999 96.71l40.454-23.355V26.646L49.999 3.29zM82.19 68.584L49.999 87.169 17.811 68.584v-37.17l32.188-18.585L82.19 31.414V68.584z" fill="#c5d0d2" data-fill-palette-color="accent"></path><path d="M20.368 32.89v34.218l29.631 17.108 29.634-17.108V32.89L49.999 15.782 20.368 32.89zM71.446 62.383l-21.447 12.38-21.444-12.38V37.618l21.444-12.382 21.447 12.382V62.383z" fill="#c5d0d2" data-fill-palette-color="accent"></path></g></svg></g></svg></g></svg></g></svg></g></svg></g><defs></defs></svg><rect width="395.52" height="104.99850715154369" fill="none" stroke="none" visibility="hidden"></rect></g></svg></g></svg>